<svg width="30" height="30" viewBox="0 0 30 30" fill="none" xmlns="http://www.w3.org/2000/svg">
<rect width="30" height="30" rx="15" fill="#131927"/>
<path d="M15.8793 8.90909H18.6151V18.0369C18.6151 18.8807 18.4254 19.6136 18.0462 20.2358C17.6712 20.858 17.1491 21.3374 16.4801 21.674C15.8111 22.0107 15.0334 22.179 14.147 22.179C13.3587 22.179 12.6428 22.0405 11.9993 21.7635C11.3601 21.4822 10.853 21.0561 10.478 20.4851C10.103 19.9098 9.91761 19.1875 9.92188 18.3182H12.6768C12.6854 18.6634 12.7557 18.9595 12.8878 19.2067C13.0241 19.4496 13.2095 19.6371 13.4439 19.7692C13.6825 19.897 13.9638 19.9609 14.2876 19.9609C14.6286 19.9609 14.9162 19.8885 15.1506 19.7436C15.3892 19.5945 15.5703 19.3771 15.6939 19.0916C15.8175 18.8061 15.8793 18.4545 15.8793 18.0369V8.90909Z" fill="white"/>
</svg>
